<svg xmlns="http://www.w3.org/2000/svg" viewBox="0 0 512 512">
  <!-- Cérebro Azul (Cor #0284c7 correspondente ao tailwind text-medical-600) -->
  <path fill="#0284c7" d="M208 0c-29.9 0-54.7 20.5-61.8 48.2-.8 0-1.6-.2-2.4-.2-13.5 0-26.3 4.5-36.8 12C96.2 53.2 86 48 75.2 48c-42.2 0-76.8 33-78.2 74.6C-2.3 126.6 0 130.3 0 133.5c0 33.7 13.9 64.6 36.3 86.8C16.9 238.4 4 266 4 296c0 36.9 19.6 69.7 49.3 88.8C52 391 51.2 397.4 51.2 404c0 59.6 48.4 108 108 108 26.6 0 51.1-9.6 70.4-25.6 15.3 10.1 33.5 15.6 52.4 15.6 30.7 0 58.8-14.7 76.6-37.4C371.1 475.2 386.7 480 403.2 480c59.6 0 108-48.4 108-108 0-6.1-.7-12.1-2.1-17.8 28.6-18.9 47.5-51 47.5-87.2 0-33.1-15.6-62.9-39.9-82.2 12.3-20.9 19.3-45.2 19.3-71.2 0-77.9-61.7-141.2-138.9-143.2-2.6-39.8-35.9-71.3-76.5-71.3-13.6 0-26.4 3.5-37.7 9.7C271.7 3.5 258.9 0 245.3 0 232.4 0 219.9 3.1 208 8.7z"/>
</svg>